<svg width="24" height="25" viewBox="0 0 24 25" fill="none" xmlns="http://www.w3.org/2000/svg">
<path d="M6.75 9.875H3C2.58579 9.875 2.25 10.2108 2.25 10.625V14.375C2.25 14.7892 2.58579 15.125 3 15.125H6.75C7.16421 15.125 7.5 14.7892 7.5 14.375V10.625C7.5 10.2108 7.16421 9.875 6.75 9.875Z" stroke="#20C4CB" strokeWidth="1.5" strokeLinecap="round" strokeLinejoin="round"/>
<path d="M20.25 4.25H15.75C15.3358 4.25 15 4.58579 15 5V9.5C15 9.91421 15.3358 10.25 15.75 10.25H20.25C20.6642 10.25 21 9.91421 21 9.5V5C21 4.58579 20.6642 4.25 20.25 4.25Z" stroke="#20C4CB" strokeWidth="1.5" strokeLinecap="round" strokeLinejoin="round"/>
<path d="M20.25 14.75H15.75C15.3358 14.75 15 15.0858 15 15.5V20C15 20.4142 15.3358 20.75 15.75 20.75H20.25C20.6642 20.75 21 20.4142 21 20V15.5C21 15.0858 20.6642 14.75 20.25 14.75Z" stroke="#20C4CB" strokeWidth="1.5" strokeLinecap="round" strokeLinejoin="round"/>
<path d="M7.5 12.5H11.25" stroke="#20C4CB" strokeWidth="1.5" strokeLinecap="round" strokeLinejoin="round"/>
<path d="M15 17.75H13.5C12.9033 17.75 12.331 17.5129 11.909 17.091C11.4871 16.669 11.25 16.0967 11.25 15.5V9.5C11.25 8.90326 11.4871 8.33097 11.909 7.90901C12.331 7.48705 12.9033 7.25 13.5 7.25H15" stroke="#20C4CB" strokeWidth="1.5" strokeLinecap="round" strokeLinejoin="round"/>
</svg>
