<svg width="422" height="324" viewBox="0 0 422 324" fill="none" xmlns="http://www.w3.org/2000/svg">
<g filter="url(#filter0_d_589_454)">
<rect x="100" y="90" width="222" height="124" rx="20" fill="white"/>
</g>
<rect x="279" y="63" width="86" height="39" rx="19.5" fill="#438BFB"/>
<path d="M310.386 83.088V81.664H305.842V77.872H311.25V76.432H304.274V88H305.842V83.088H310.386ZM311.771 84.08C311.771 86.496 313.499 88.192 315.851 88.192C318.187 88.192 319.915 86.496 319.915 84.08C319.915 81.664 318.187 79.968 315.851 79.968C313.499 79.968 311.771 81.664 311.771 84.08ZM313.291 84.08C313.291 82.448 314.331 81.312 315.851 81.312C317.355 81.312 318.411 82.448 318.411 84.08C318.411 85.712 317.355 86.848 315.851 86.848C314.331 86.848 313.291 85.712 313.291 84.08ZM326.06 80.112C325.756 80.048 325.532 80.016 325.26 80.016C324.188 80.016 323.404 80.56 323.084 81.376L322.988 80.192H321.58V88H323.084V83.856C323.084 82.352 323.964 81.488 325.388 81.488H326.06V80.112ZM334.982 82.224L331.014 88H332.854L335.958 83.424C336.342 84.096 336.774 84.8 337.222 85.456L338.998 88H340.854L336.934 82.208L340.806 76.432H338.998L335.942 81.04C335.606 80.4 335.222 79.76 334.71 79.008L332.902 76.432H331.03L334.982 82.224Z" fill="white"/>
<rect x="57" y="200" width="86" height="39" rx="19.5" fill="#FFBB55"/>
<path d="M88.6904 220.088V218.664H84.1464V214.872H89.5544V213.432H82.5784V225H84.1464V220.088H88.6904ZM90.076 221.08C90.076 223.496 91.804 225.192 94.156 225.192C96.492 225.192 98.22 223.496 98.22 221.08C98.22 218.664 96.492 216.968 94.156 216.968C91.804 216.968 90.076 218.664 90.076 221.08ZM91.596 221.08C91.596 219.448 92.636 218.312 94.156 218.312C95.66 218.312 96.716 219.448 96.716 221.08C96.716 222.712 95.66 223.848 94.156 223.848C92.636 223.848 91.596 222.712 91.596 221.08ZM104.365 217.112C104.061 217.048 103.837 217.016 103.565 217.016C102.493 217.016 101.709 217.56 101.389 218.376L101.293 217.192H99.8849V225H101.389V220.856C101.389 219.352 102.269 218.488 103.693 218.488H104.365V217.112ZM113.143 220.296V225H114.711V220.296L118.599 213.432H116.887L114.327 218.056C114.119 218.44 114.087 218.536 113.943 218.824C113.815 218.552 113.719 218.328 113.559 218.056L110.983 213.432H109.223L113.143 220.296Z" fill="white"/>
<rect x="151" y="128" width="120" height="16" rx="8" fill="#F3F2F4"/>
<rect x="168.5" y="160" width="85" height="16" rx="8" fill="#F3F2F4"/>
<defs>
<filter id="filter0_d_589_454" x="0" y="0" width="422" height="324" filterUnits="userSpaceOnUse" color-interpolation-filters="sRGB">
<feFlood flood-opacity="0" result="BackgroundImageFix"/>
<feColorMatrix in="SourceAlpha" type="matrix" values="0 0 0 0 0 0 0 0 0 0 0 0 0 0 0 0 0 0 127 0" result="hardAlpha"/>
<feOffset dy="10"/>
<feGaussianBlur stdDeviation="50"/>
<feComposite in2="hardAlpha" operator="out"/>
<feColorMatrix type="matrix" values="0 0 0 0 0.0352941 0 0 0 0 0.0156863 0 0 0 0 0.105882 0 0 0 0.1 0"/>
<feBlend mode="normal" in2="BackgroundImageFix" result="effect1_dropShadow_589_454"/>
<feBlend mode="normal" in="SourceGraphic" in2="effect1_dropShadow_589_454" result="shape"/>
</filter>
</defs>
</svg>
