<svg width="422" height="324" viewBox="0 0 422 324" fill="none" xmlns="http://www.w3.org/2000/svg">
<g filter="url(#filter0_d_589_453)">
<rect x="100" y="90" width="222" height="124" rx="20" fill="white"/>
</g>
<rect x="66" y="63" width="86" height="39" rx="19.5" fill="#8542F5"/>
<path d="M96.6933 88V82.864H102.421V88H103.989V76.432H102.421V81.408H96.6933V76.432H95.1253V88H96.6933ZM107.696 82.192C108.304 82.192 108.832 81.68 108.832 81.088C108.832 80.464 108.304 79.952 107.696 79.952C107.072 79.952 106.544 80.464 106.544 81.088C106.544 81.68 107.072 82.192 107.696 82.192ZM107.696 88.192C108.304 88.192 108.832 87.68 108.832 87.072C108.832 86.448 108.304 85.936 107.696 85.936C107.072 85.936 106.544 86.448 106.544 87.072C106.544 87.68 107.072 88.192 107.696 88.192ZM121.958 84.336C123.142 82.72 123.558 81.744 123.558 80.384C123.558 78.032 121.702 76.224 119.302 76.224C116.918 76.224 115.094 77.968 115.094 80.368C115.094 82.672 116.71 84.4 119.11 84.4C119.51 84.4 119.926 84.32 120.326 84.16L117.43 88H119.254L121.958 84.336ZM121.958 80.368C121.958 81.952 120.87 83.072 119.302 83.072C117.766 83.072 116.678 81.952 116.678 80.368C116.678 78.784 117.766 77.632 119.302 77.632C120.87 77.632 121.958 78.784 121.958 80.368Z" fill="white"/>
<rect x="256" y="200" width="86" height="39" rx="19.5" fill="#20C4CB"/>
<path d="M282.477 225H284.013L286.845 215.848L289.645 225H291.149L294.637 213.432H293.037L290.909 220.52C290.749 221.032 290.589 221.624 290.397 222.6C290.221 221.736 290.061 221.128 289.869 220.504L287.693 213.432H285.997L283.805 220.504C283.629 221.112 283.453 221.672 283.261 222.6C283.101 221.72 282.941 221.112 282.781 220.504L280.669 213.432H279.037L282.477 225ZM296.852 219.192C297.46 219.192 297.988 218.68 297.988 218.088C297.988 217.464 297.46 216.952 296.852 216.952C296.228 216.952 295.7 217.464 295.7 218.088C295.7 218.68 296.228 219.192 296.852 219.192ZM296.852 225.192C297.46 225.192 297.988 224.68 297.988 224.072C297.988 223.448 297.46 222.936 296.852 222.936C296.228 222.936 295.7 223.448 295.7 224.072C295.7 224.68 296.228 225.192 296.852 225.192ZM306.586 214.84V225H308.09V213.432H304.154V214.84H306.586ZM311.678 217.096C310.494 218.712 310.078 219.672 310.078 221.048C310.078 223.384 311.934 225.192 314.334 225.192C316.718 225.192 318.542 223.464 318.542 221.048C318.542 218.76 316.926 217.032 314.526 217.032C314.126 217.032 313.71 217.112 313.31 217.272L316.206 213.432H314.382L311.678 217.096ZM311.678 221.064C311.678 219.48 312.766 218.36 314.334 218.36C315.87 218.36 316.958 219.48 316.958 221.064C316.958 222.648 315.87 223.784 314.334 223.784C312.766 223.784 311.678 222.648 311.678 221.064Z" fill="white"/>
<rect x="151" y="128" width="120" height="16" rx="8" fill="#F3F2F4"/>
<rect x="168.5" y="160" width="85" height="16" rx="8" fill="#F3F2F4"/>
<defs>
<filter id="filter0_d_589_453" x="0" y="0" width="422" height="324" filterUnits="userSpaceOnUse" color-interpolation-filters="sRGB">
<feFlood flood-opacity="0" result="BackgroundImageFix"/>
<feColorMatrix in="SourceAlpha" type="matrix" values="0 0 0 0 0 0 0 0 0 0 0 0 0 0 0 0 0 0 127 0" result="hardAlpha"/>
<feOffset dy="10"/>
<feGaussianBlur stdDeviation="50"/>
<feComposite in2="hardAlpha" operator="out"/>
<feColorMatrix type="matrix" values="0 0 0 0 0.0352941 0 0 0 0 0.0156863 0 0 0 0 0.105882 0 0 0 0.1 0"/>
<feBlend mode="normal" in2="BackgroundImageFix" result="effect1_dropShadow_589_453"/>
<feBlend mode="normal" in="SourceGraphic" in2="effect1_dropShadow_589_453" result="shape"/>
</filter>
</defs>
</svg>
