<svg width="628" height="319" viewBox="0 0 628 319" fill="none" xmlns="http://www.w3.org/2000/svg">
<rect x="25.5" y="17" width="460" height="302" rx="20" fill="#F3F2F4" fill-opacity="0.7"/>
<rect x="0.5" width="104" height="34" rx="17" fill="white"/>
<circle cx="30.5" cy="17" r="5" fill="#F87481"/>
<circle cx="52.5" cy="17" r="5" fill="#FFBB55"/>
<circle cx="74.5" cy="17" r="5" fill="#79B34C"/>
<rect x="51.5" y="37" width="16" height="16" rx="8" fill="#E6E6E8"/>
<rect x="79.5" y="37" width="16" height="16" rx="8" fill="#E6E6E8"/>
<rect x="208.5" y="37" width="96" height="16" rx="8" fill="#E6E6E8"/>
<rect x="395.5" y="37" width="48" height="16" rx="8" fill="#E6E6E8"/>
<rect x="51.5" y="106" width="72" height="40" rx="10" fill="#E6E6E8"/>
<rect x="51.5" y="160" width="72" height="40" rx="10" fill="#E6E6E8"/>
<rect x="51.5" y="214" width="72" height="40" rx="10" fill="#E6E6E8"/>
<rect x="52.5" y="283" width="16" height="16" rx="8" fill="#E6E6E8"/>
<rect x="84.5" y="283" width="120" height="16" rx="8" fill="#E6E6E8"/>
<rect x="246.5" y="283" width="104" height="16" rx="8" fill="#E6E6E8"/>
<rect x="396.5" y="283" width="64" height="16" rx="8" fill="#E6E6E8"/>
<line opacity="0.5" x1="25.5" y1="72.5" x2="485.5" y2="72.5" stroke="#E6E6E8"/>
<rect x="51.5" y="37" width="16" height="16" rx="8" fill="#E6E6E8"/>
<rect x="79.5" y="37" width="16" height="16" rx="8" fill="#E6E6E8"/>
<rect x="208.5" y="37" width="96" height="16" rx="8" fill="#E6E6E8"/>
<rect x="395.5" y="37" width="48" height="16" rx="8" fill="#E6E6E8"/>
<rect x="51.5" y="106" width="72" height="40" rx="10" fill="#E6E6E8"/>
<rect x="51.5" y="160" width="72" height="40" rx="10" fill="#E6E6E8"/>
<rect x="51.5" y="214" width="72" height="40" rx="10" fill="#E6E6E8"/>
<rect x="52.5" y="283" width="16" height="16" rx="8" fill="#E6E6E8"/>
<rect x="84.5" y="283" width="120" height="16" rx="8" fill="#E6E6E8"/>
<rect x="246.5" y="283" width="104" height="16" rx="8" fill="#E6E6E8"/>
<rect x="396.5" y="283" width="64" height="16" rx="8" fill="#E6E6E8"/>
<line opacity="0.5" x1="25.5" y1="72.5" x2="485.5" y2="72.5" stroke="#E6E6E8"/>
<rect x="149.5" y="120" width="120" height="120" rx="60" fill="white"/>
<path d="M226 165H193C192.172 165 191.5 165.672 191.5 166.5V193.5C191.5 194.328 192.172 195 193 195H226C226.828 195 227.5 194.328 227.5 193.5V166.5C227.5 165.672 226.828 165 226 165Z" stroke="#E6E6E8" stroke-width="3" stroke-linecap="round" stroke-linejoin="round"/>
<path d="M191.5 187.5L200.939 178.061C201.079 177.922 201.244 177.811 201.426 177.736C201.608 177.66 201.803 177.622 202 177.622C202.197 177.622 202.392 177.66 202.574 177.736C202.756 177.811 202.921 177.922 203.061 178.061L211.439 186.44C211.579 186.579 211.744 186.689 211.926 186.765C212.108 186.84 212.303 186.879 212.5 186.879C212.697 186.879 212.892 186.84 213.074 186.765C213.256 186.689 213.421 186.579 213.561 186.44L217.439 182.561C217.579 182.422 217.744 182.311 217.926 182.236C218.108 182.16 218.303 182.122 218.5 182.122C218.697 182.122 218.892 182.16 219.074 182.236C219.256 182.311 219.421 182.422 219.561 182.561L227.5 190.5" stroke="#E6E6E8" stroke-width="3" stroke-linecap="round" stroke-linejoin="round"/>
<path d="M214.75 177C215.993 177 217 175.993 217 174.75C217 173.507 215.993 172.5 214.75 172.5C213.507 172.5 212.5 173.507 212.5 174.75C212.5 175.993 213.507 177 214.75 177Z" fill="#E6E6E8"/>
<path d="M329 182.5L334 187.5L329 192.5" stroke="#E6E6E8" stroke-width="2.5" stroke-linecap="round" stroke-linejoin="round"/>
<path d="M309 187.5H334" stroke="#E6E6E8" stroke-width="2.5" stroke-linecap="round" stroke-linejoin="round"/>
<path d="M314 177.5L309 172.5L314 167.5" stroke="#E6E6E8" stroke-width="2.5" stroke-linecap="round" stroke-linejoin="round"/>
<path d="M334 172.5H309" stroke="#E6E6E8" stroke-width="2.5" stroke-linecap="round" stroke-linejoin="round"/>
<rect x="373.5" y="120" width="120" height="120" rx="60" fill="white"/>
<path d="M450 165H417C416.172 165 415.5 165.672 415.5 166.5V193.5C415.5 194.328 416.172 195 417 195H450C450.828 195 451.5 194.328 451.5 193.5V166.5C451.5 165.672 450.828 165 450 165Z" stroke="#E6E6E8" stroke-width="3" stroke-linecap="round" stroke-linejoin="round"/>
<path d="M415.5 187.5L424.939 178.061C425.079 177.922 425.244 177.811 425.426 177.736C425.608 177.66 425.803 177.622 426 177.622C426.197 177.622 426.392 177.66 426.574 177.736C426.756 177.811 426.921 177.922 427.061 178.061L435.439 186.44C435.579 186.579 435.744 186.689 435.926 186.765C436.108 186.84 436.303 186.879 436.5 186.879C436.697 186.879 436.892 186.84 437.074 186.765C437.256 186.689 437.421 186.579 437.561 186.44L441.439 182.561C441.579 182.422 441.744 182.311 441.926 182.236C442.108 182.16 442.303 182.122 442.5 182.122C442.697 182.122 442.892 182.16 443.074 182.236C443.256 182.311 443.421 182.422 443.561 182.561L451.5 190.5" stroke="#E6E6E8" stroke-width="3" stroke-linecap="round" stroke-linejoin="round"/>
<path d="M438.75 177C439.993 177 441 175.993 441 174.75C441 173.507 439.993 172.5 438.75 172.5C437.507 172.5 436.5 173.507 436.5 174.75C436.5 175.993 437.507 177 438.75 177Z" fill="#E6E6E8"/>
<g filter="url(#filter0_d_460_7651)">
<rect x="203.5" y="100" width="86" height="39" rx="19.5" fill="#FFBB55"/>
<path d="M245.385 119.208C245.385 115.688 243.097 113.224 239.817 113.224C236.553 113.224 234.265 115.704 234.265 119.208C234.265 122.728 236.537 125.192 239.801 125.192C243.081 125.192 245.385 122.728 245.385 119.208ZM243.737 119.208C243.737 121.88 242.169 123.688 239.817 123.688C237.465 123.688 235.913 121.896 235.913 119.208C235.913 116.52 237.465 114.744 239.817 114.744C242.169 114.744 243.737 116.52 243.737 119.208ZM248.671 125V113.224H247.167V125H248.671ZM254.021 125.192C255.269 125.192 256.325 124.648 256.837 123.576L256.965 125H258.309V113.224H256.821V118.44C256.293 117.48 255.285 116.952 254.085 116.952C251.765 116.952 250.373 118.712 250.373 121.112C250.373 123.496 251.749 125.192 254.021 125.192ZM254.325 123.832C252.789 123.832 251.893 122.68 251.893 121.064C251.893 119.464 252.789 118.312 254.325 118.312C255.861 118.312 256.805 119.464 256.805 121.064C256.805 122.696 255.861 123.832 254.325 123.832Z" fill="white"/>
</g>
<g filter="url(#filter1_d_460_7651)">
<rect x="447.5" y="100" width="86" height="39" rx="19.5" fill="#8542F5"/>
<path d="M477.193 125V116.056L483.113 125H484.681V113.432H483.113V122.376L477.193 113.432H475.625V125H477.193ZM490.495 125.192C492.431 125.192 493.743 124.248 494.127 122.568H492.719C492.463 123.464 491.695 123.944 490.527 123.944C489.039 123.944 488.175 123.032 488.063 121.384L494.111 121.368V120.808C494.111 118.488 492.655 116.952 490.431 116.952C488.159 116.952 486.607 118.648 486.607 121.096C486.607 123.528 488.191 125.192 490.495 125.192ZM490.431 118.216C491.759 118.216 492.607 119.08 492.607 120.376H488.095C488.287 119 489.119 118.216 490.431 118.216ZM497.206 125H498.694L500.054 120.824C500.342 119.88 500.486 119.368 500.566 118.984C500.646 119.416 500.806 120.024 501.062 120.808L502.422 125H503.845L506.518 117.176H504.95L503.638 121.24C503.414 121.928 503.27 122.472 503.142 123.096C503.014 122.536 502.758 121.624 502.63 121.24L501.334 117.176H499.798L498.486 121.24C498.31 121.752 498.102 122.408 497.974 123.096C497.83 122.408 497.67 121.816 497.494 121.24L496.198 117.176H494.646L497.206 125Z" fill="white"/>
</g>
<defs>
<filter id="filter0_d_460_7651" x="89.5" y="6" width="294" height="247" filterUnits="userSpaceOnUse" color-interpolation-filters="sRGB">
<feFlood flood-opacity="0" result="BackgroundImageFix"/>
<feColorMatrix in="SourceAlpha" type="matrix" values="0 0 0 0 0 0 0 0 0 0 0 0 0 0 0 0 0 0 127 0" result="hardAlpha"/>
<feOffset dx="-10" dy="10"/>
<feGaussianBlur stdDeviation="52"/>
<feComposite in2="hardAlpha" operator="out"/>
<feColorMatrix type="matrix" values="0 0 0 0 0.0352941 0 0 0 0 0.0156863 0 0 0 0 0.105882 0 0 0 0.1 0"/>
<feBlend mode="normal" in2="BackgroundImageFix" result="effect1_dropShadow_460_7651"/>
<feBlend mode="normal" in="SourceGraphic" in2="effect1_dropShadow_460_7651" result="shape"/>
</filter>
<filter id="filter1_d_460_7651" x="333.5" y="6" width="294" height="247" filterUnits="userSpaceOnUse" color-interpolation-filters="sRGB">
<feFlood flood-opacity="0" result="BackgroundImageFix"/>
<feColorMatrix in="SourceAlpha" type="matrix" values="0 0 0 0 0 0 0 0 0 0 0 0 0 0 0 0 0 0 127 0" result="hardAlpha"/>
<feOffset dx="-10" dy="10"/>
<feGaussianBlur stdDeviation="52"/>
<feComposite in2="hardAlpha" operator="out"/>
<feColorMatrix type="matrix" values="0 0 0 0 0.0352941 0 0 0 0 0.0156863 0 0 0 0 0.105882 0 0 0 0.1 0"/>
<feBlend mode="normal" in2="BackgroundImageFix" result="effect1_dropShadow_460_7651"/>
<feBlend mode="normal" in="SourceGraphic" in2="effect1_dropShadow_460_7651" result="shape"/>
</filter>
</defs>
</svg>
